<svg xmlns="http://www.w3.org/2000/svg" viewBox="0 0 40 40" enable-background="new 0 0 40 40"><path fill-rule="evenodd" clip-rule="evenodd" d="M20 0c-11 0-20 9-20 20s9 20 20 20 20-9 20-20-9-20-20-20m-11 34.4c1-.9 2.3-1.7 4.2-2.3 1.5-.5 3.7-1.2 4.2-3.4.2-.8.1-1.7.1-2.6v-.8c0-.5-.3-.9-.6-1.2-.1-.1-.2-.2-.2-.3-.5-.8-.8-1.7-1.2-2.7-.1-.4-.4-.6-.7-.6-.1 0-.2-.3-.3-.6 0-.2-.1-.6-.1-.9.3-.2.4-.6.4-.9-.4-2.3-.7-5.2.4-7.4.9-1.8 2.8-2.6 5.7-2.5.4 0 .9 0 1.2.2.1 0 .1.2.2.3l.2.2c.4.5.8.7 1.4.7.5 0 .9.2 1.2.5.8.7 1 2.2 1 3.2 0 1.4-.2 2.9-.7 4.8-.1.4.1.8.4 1 0 .1 0 .4-.1.9 0 .1-.2.4-.3.6-.1 0-.3 0-.4.1-.2.1-.4.3-.5.6-.3.9-.5 1.8-1 2.6l-.3.4c-.3.3-.6.7-.6 1.3v.8c0 1-.1 2.2.4 3.2.5 1.1 1.8 2 3.6 2.5 1.9.6 3.4 1.4 4.4 2.4-3.1 2.3-6.9 3.8-11 3.8-4.1-.1-8-1.5-11-3.9m23.4-1.2c-.9-1-2.2-1.7-3.9-2.4l-1.1-.4c-1.1-.4-2.2-.7-2.8-1.7-.2-.3-.2-.8-.2-1.3v-1.8l.1-.2c.2-.3.4-.6.7-1.1.3-.7.6-1.4.8-2.1.7-.3 1.2-1.1 1.4-1.9.2-.8.3-1.8-.2-2.4.7-2.5 1.3-6.1-.4-8.6-.7-1-1.8-1.6-3.1-1.7 0-.1-.1-.1-.2-.2l-.1-.2c-.3-.3-.6-.6-1.1-.8-1.4-.5-3.2-.3-4.4-.1-1.2.2-2.4.8-3.3 1.6-1.6 1.4-2.4 3.8-2.3 7 0 .9.1 1.8.3 2.8-.4.7-.3 1.6-.2 1.9.1.8.5 1.8 1.3 2.2.3.9.6 1.5.9 2.2.1.3.3.6.5.9l.2.3v.1c0 .9.1 1.8 0 2.6-.1 1.2-1.4 1.7-3.1 2.2-.3.1-.6.2-.8.3-1.7.7-3.1 1.5-4.2 2.6-3.5-3.3-5.8-8-5.8-13.3.4-9.7 8.6-17.9 18.6-17.9 10 0 18.2 8.2 18.2 18.2 0 5.2-2.3 9.9-5.8 13.2"/></svg>