<svg width="28" height="19" viewBox="0 0 28 19" xmlns="http://www.w3.org/2000/svg"><title>Slice 1</title><desc>Created with Sketch.</desc><path d="M25.359 17.643h-23.12c-.486 0-.896-.415-.896-.904v-8.003h24.911v8.003c0 .49-.411.904-.896.904m-23.12-16.287h23.12c.485 0 .896.415.896.904v1.86h-24.911v-1.86c0-.49.41-.904.896-.904m23.12-1.357h-23.12c-1.232 0-2.239 1.017-2.239 2.261v14.478c0 1.244 1.008 2.261 2.239 2.261h23.12c1.232 0 2.239-1.017 2.239-2.261v-14.478c0-1.244-1.008-2.261-2.239-2.261" fill="#CFCFCF"/></svg>