<svg xmlns="http://www.w3.org/2000/svg" viewBox="0 0 40 40" enable-background="new 0 0 40 40"><path fill-rule="evenodd" clip-rule="evenodd" d="M1.9 1.2c.1 0 .2 0 .3.1l4.5 1.5c.4.1.6.4.7.7l.7 3.1h30c.3 0 .6.1.8.4.2.2.3.5.2.8l-2.7 16.6c-.1.5-.3.8-.9.9l-23.2 2.2-.9 3.1h19.6c2.3 0 4.1 1.8 4.1 4.1s-1.8 4.1-4.1 4.1-4.1-1.8-4.1-4.1c0-.6.1-1.1.3-1.6l.2-.5h-8.7l.2.5c.2.5.3 1.1.3 1.6 0 2.3-1.8 4.1-4.1 4.1s-4.1-1.8-4.1-4.1c0-.6.1-1.1.3-1.6l.2-.5h-1.3c-.3 0-.6-.2-.8-.4-.3-.2-.4-.4-.3-.8l1.2-4.9-4.8-22-4-1.3c-.4-.2-.7-.8-.5-1.3 0-.2.2-.4.5-.6l.4-.1m29 35.6c1.1 0 2.1-.9 2.1-2.1 0-1.1-.9-2.1-2.1-2.1-1.1 0-2.1.9-2.1 2.1 0 1.1.9 2.1 2.1 2.1m-15.9 0c1.1 0 2.1-.9 2.1-2.1 0-1.1-.9-2.1-2.1-2.1-1.1 0-2.1.9-2.1 2.1 0 1.1 1 2.1 2.1 2.1m-13.1-36.5c-.3 0-.6.1-.9.2-.5.2-.8.6-1 1.1-.3 1 .2 2.1 1.2 2.4l3.5 1.1 4.6 21.3-1.2 4.7c-.1.6 0 1.1.3 1.6.4.5 1 .8 1.6.8-.1.4-.1.8-.1 1.2 0 2.8 2.2 5 5 5s5-2.2 5-5c0-.4 0-.8-.1-1.2h6.2c-.1.4-.1.8-.1 1.2 0 2.8 2.2 5 5 5s5-2.2 5-5-2.2-5-5-5h-18.4l.4-1.4 22.6-2.1c1-.1 1.6-.6 1.7-1.6l2.8-16.7c.1-.6-.1-1.1-.4-1.6l-.1-.1c-.4-.3-.8-.5-1.3-.5h-29.4l-.5-2.4c-.1-.7-.6-1.2-1.3-1.4l-4.5-1.5-.6-.1m29 35.5c-.6 0-1.2-.5-1.2-1.2 0-.6.5-1.2 1.2-1.2.6 0 1.2.5 1.2 1.2s-.6 1.2-1.2 1.2m-15.9 0c-.6 0-1.2-.5-1.2-1.2 0-.6.5-1.2 1.2-1.2.6 0 1.2.5 1.2 1.2s-.5 1.2-1.2 1.2"/></svg>