<svg xmlns="http://www.w3.org/2000/svg" viewBox="0 0 40 40" enable-background="new 0 0 40 40"><path fill-rule="evenodd" clip-rule="evenodd" d="M40 7c.1-.3 0-.6-.2-.9-.2-.2-.5-.4-.8-.4h-31.5l-.7-3.3c0-.4-.3-.6-.7-.8l-4.7-1.5c-.3-.1-.6-.1-.8 0-.3.1-.5.4-.5.6-.2.6.1 1.2.7 1.4l4.2 1.4 5 23.4-1.3 5.2c-.1.4 0 .7.2.8.2.3.5.4.9.4h1.4l-.2.5c-.2.5-.3 1.1-.3 1.7 0 2.4 1.9 4.4 4.3 4.4s4.3-2 4.3-4.4c0-.6-.1-1.2-.3-1.7l-.2-.5h9.1l-.2.5c-.2.5-.3 1.1-.3 1.7 0 2.4 1.9 4.4 4.3 4.4s4.3-2 4.3-4.4c0-2.4-1.9-4.4-4.3-4.4h-20.5l.9-3.3 24.3-2.3c.7-.1.9-.4 1-.9l2.6-17.6zm-8.6 26.4c1.2 0 2.2 1 2.2 2.2 0 1.2-1 2.2-2.2 2.2-1.2 0-2.2-1-2.2-2.2 0-1.2 1-2.2 2.2-2.2zm-16.6 0c1.2 0 2.2 1 2.2 2.2 0 1.2-1 2.2-2.2 2.2-1.2 0-2.2-1-2.2-2.2 0-1.2 1-2.2 2.2-2.2z"/></svg>