<svg xmlns="http://www.w3.org/2000/svg" viewBox="0 0 204.7 41.2" enable-background="new 0 0 204.7 41.2"><path fill-rule="evenodd" clip-rule="evenodd" d="M2.1 39.9c-1.5-.9-2.1-2-2.1-3.4 0-2.3 2.4-4.1 4.3-5v-.2c-1.7-.4-2.8-1.7-2.8-2.9 0-2 2.3-3.4 3.7-3.9v-.1c-1.6-.7-3.9-2.6-3.9-6.3 0-2.7 2.4-6 7.1-6 3.1 0 4.8 1.9 5.2 2.4 1.1-.8 2.5-1.6 3.9-1.6s2 .9 1.9 1.7c0 .8-.7 1.5-1.6 1.5-.7 0-1.1-.3-1.4-.6-.2-.2-.5-.4-.9-.4-.3 0-.8 0-1.3.2.3.8.6 1.7.6 3.1 0 1.6-.5 3.2-1.5 4.5-1.1 1.2-3.4 2.1-4.8 2.1-.9 0-1.5 0-2.1-.2-.8.3-2.2 1.2-2.2 2.3 0 1.7 2.1 1.6 4.8 1.4 3.4-.2 5.5.2 7.1 1.5 1.8 1.3 2 3 2 4 0 1.9-.7 3.6-2.8 5.1-1.1.8-3.6 1.9-7.1 1.9-1.7.2-4.1 0-6.1-1.1m13.7-4.3c0-2.4-1.9-4.3-6-4l-4 .3c-1.3.3-3.3 1.7-3.3 4 0 1 .8 2.3 1.6 2.9 1.4 1 2.9 1.2 5.8 1.2 1.5-.1 6.1-1.2 5.9-4.4m-3.9-17.6c0-1.8-.4-2.9-1.1-3.7-.5-.5-1.4-.9-2-.9-1 0-1.9.2-2.9 1.2-1.3 1.4-1.5 3.3-1.5 4.9 0 1.4.5 2.7 1.3 3.6.7.7 1.5 1 2.5 1 2.8-.1 3.7-3.5 3.7-6.1"/><path fill-rule="evenodd" clip-rule="evenodd" d="M23.5 18.9c0-2.1-.3-2.5-1.5-3.1l-.8-.4c-.2-.1-.3-.1-.3-.3v-.2c0-.2.1-.2.3-.4l4.1-2.1c.2-.1.4-.2.6-.2.2 0 .3.2.3.5l.2 2.9h.2c1.2-1.9 3.2-3.6 5-3.6 1.4 0 2.1.9 2.1 1.8 0 1.2-1 2-1.7 2-.5 0-.9-.2-1.2-.3-.3-.2-.8-.3-1.4-.3-.7 0-1.7.4-2.4 1.7-.2.5-.4 1.2-.4 1.3v8.7c0 1.3.3 1.7 1.2 1.7h1.9c.2 0 .3.1.3.4v.7c0 .2 0 .4-.2.4s-2.2-.1-4.4-.1c-2.6 0-4.3.1-4.6.1-.2 0-.2-.1-.2-.4v-.7c0-.3.1-.4.5-.4h1.6c.6 0 .9-.2.9-.8v-8.9zM47.7 25c0 2.4.5 3.1 1.2 3.1s1.2-.3 1.4-.6c.2-.2.2-.3.4-.2l.4.3c.1.1.2.3 0 .7-.3.6-1.1 2-3.2 2-1.5 0-2.6-1.1-2.9-2.8-.9 1-2.2 1.9-4.1 2.5-.8.2-1.5.2-2.4.2-1 0-2.5-.8-2.5-3.4 0-1.9.9-3.6 4.1-5 1.9-.8 4-1.8 4.7-2.4v-2.6c-.1-.7-.1-1.8-.6-2.3s-1.3-.9-2.5-.9c-.8 0-2.1.3-2.7.9-.6.5-.2 1.2-.2 1.9 0 1.4-.5 2.4-2.2 2.4-.7 0-1-.4-1-1.3 0-1.3 1.2-2.9 2.9-3.9s3.2-1.4 5.1-1.4c1.9 0 2.7.6 3.3 1.1.9.9.9 1.8.9 2.9v8.8zm-3-4.2c-1.5 1.1-5.5 1.9-5.5 5.4 0 1.5.9 2.3 2.2 2.3 1.2 0 3.4-1.4 3.4-2.6v-5.1zM70.1 27.7c0 .7.4.9.9.9h1.3c.4 0 .5.1.5.4v.7c0 .3-.1.5-.3.5-.3 0-1.6-.1-3.9-.1-2.1 0-3.4.1-3.7.1-.2 0-.3-.1-.3-.5v-.7c0-.3.1-.4.5-.4h1.2c.5 0 .8-.2.8-1l.1-3.5v-5.5c0-1.7 0-2.9-1.2-3.7-1-.7-2-.7-3-.7-.7 0-2.1.3-3.4 1.6-.8.9-1 2-1 2.8v8.6c0 1.1.1 1.4 1 1.4h1c.3 0 .4.1.4.4v.7c0 .2-.1.4-.3.4-.3 0-1.4-.1-3.6-.1-2.1 0-3.4.1-3.7.1-.2 0-.3-.1-.3-.4v-.7c0-.2.1-.4.4-.4h1.2c.5 0 .8-.1.8-.8v-9.7c0-1.2-.7-1.9-1.7-2.4l-.3-.2c-.3-.1-.3-.2-.3-.4v-.2c0-.2.2-.3.4-.4l3.6-2c.3-.2.6-.3.7-.3.2 0 .3.2.3.5l.3 2.5h.1c1.2-1.5 3.6-3 5.7-3 1.2 0 2.5.2 3.5.9 1.2.8 2.3 2.9 2.3 3.9v10.7zM88.6 4.7c0-1.6-.3-2.1-2.6-2.4-.2 0-.3-.1-.3-.3v-.7c0-.2 0-.3.3-.3 1.6-.3 3.8-.7 4.6-.9.4 0 .7-.1 1-.1.2 0 .2.3.2.7-.1 2.1-.2 8.1-.2 13.3v9.2c0 1.5.1 3.4.4 3.8.4.4 1.2.7 1.8.7.6 0 .7.1.8.3l.1.3c0 .2 0 .4-.3.5l-4.7 1.6c-.2.1-.5 0-.5-.3l-.5-1.8c-1.3 1.3-4 2.2-6.1 2.2-1.4 0-2.9.1-4.9-1.9-2.1-2.1-2.6-3.9-2.6-6.7 0-2.6 1-5.1 2.9-7 1.6-1.7 3.9-2.6 6.2-2.6 1.7 0 3.2.2 4.4.6v-8.2zm0 13.1c0-.6 0-1.4-.4-2-.6-1.1-1.9-2.2-4.3-2.2-1.3 0-2.7.4-3.8 1.5-1.6 1.7-1.9 3.9-1.9 5.5 0 4.7 3.2 8.1 5.6 8.1 2.3 0 4.1-1.2 4.5-2.3.2-.6.2-1 .2-1.4v-7.2zM99.3 17.9c0-1.4-.2-2.2-2.3-2.5-.3 0-.4-.1-.4-.3v-.4c0-.1.1-.2.3-.3 1.3-.5 2.9-1.2 4.5-2 .3-.2.5-.2.8-.2.2 0 .2.2.2.5-.1.7-.1 3.3-.1 6.7v8.1c.1.8.2 1.1.7 1.1h1.9c.3 0 .4.1.4.4v.7c0 .3-.1.4-.4.4-.3 0-2.2-.1-4-.1-2.4 0-4 .1-4.5.1-.2 0-.3-.1-.3-.3v-.8c0-.2.1-.3.4-.3h2c.5 0 .6-.2.7-.8v-10zm-1.8-12.6c0-1 .9-2.2 2.5-2.2 1.4 0 2.2 1.1 2.2 2 0 1.1-.7 2.3-2.4 2.3-1 0-2.3-.8-2.3-2.1zM124.7 27.7c0 .7.4.9.9.9h1.3c.4 0 .5.1.5.4v.7c0 .3-.1.5-.3.5-.3 0-1.6-.1-3.9-.1-2.1 0-3.4.1-3.7.1-.2 0-.3-.1-.3-.5v-.7c0-.3.1-.4.5-.4h1.2c.5 0 .8-.2.8-1l.1-3.5v-5.5c0-1.7 0-2.9-1.2-3.7-1-.7-2-.7-3-.7-.7 0-2.1.3-3.4 1.6-.8.9-1 2-1 2.8v8.6c0 1.1.1 1.4 1 1.4h1c.3 0 .4.1.4.4v.7c0 .2-.1.4-.3.4-.3 0-1.4-.1-3.6-.1-2.1 0-3.4.1-3.7.1-.2 0-.3-.1-.3-.4v-.7c0-.2.1-.4.4-.4h1.2c.5 0 .8-.1.8-.8v-9.7c0-1.2-.7-1.9-1.7-2.4l-.3-.2c-.3-.1-.3-.2-.3-.4v-.2c0-.2.2-.3.4-.4l3.6-2c.3-.2.6-.3.7-.3.2 0 .3.2.3.5l.3 2.5h.1c1.2-1.5 3.6-3 5.7-3 1.2 0 2.5.2 3.5.9 1.2.8 2.3 2.9 2.3 3.9v10.7zM130.2 12h3.9v1.6h.1c.8-1.2 1.6-2.2 3.8-2.2h.4v4.2c-3.9.2-3.9 3.2-3.9 4.3v10.1h-4.3v-18zM138.8 21c0-5.4 4.4-9.6 9.6-9.6 5.1 0 9.5 4 9.5 9.5 0 5.9-4.5 9.6-9.5 9.6-5.4 0-9.6-4.4-9.6-9.5m14.7 0c0-3.3-2.5-5.7-5.2-5.7-2.2 0-5.3 1.9-5.3 5.7 0 3.4 2.6 5.6 5.3 5.6 3.1 0 5.2-2.7 5.2-5.6"/><path fill-rule="evenodd" clip-rule="evenodd" d="M178.4 29.9h-3.9v-2.2c-1.4 1.6-4 2.8-6.3 2.8-4.6 0-8.7-3.7-8.7-9.7 0-5.5 4-9.5 9-9.5 3.7 0 5.8 2.6 5.9 2.9h.1v-2.2h3.9v17.9zm-9.3-14.6c-3.5 0-5.3 3-5.3 5.7 0 3 2.3 5.5 5.3 5.5s5.2-2.3 5.2-5.7c.1-3.6-2.6-5.5-5.2-5.5zM199.9 29.9h-3.9v-2.2h-.1c-.8 1.3-2.7 2.8-5.7 2.8-4.6 0-9.1-3.7-9.1-9.5 0-6 4.8-9.6 9.1-9.6 2.6 0 4.2.9 5.4 2.2v-7.6h4.3v23.9zm-9.3-3.3c3.2 0 5.3-2.9 5.3-5.6 0-2.9-2.3-5.6-5.3-5.6-3.2 0-5.3 3-5.3 5.5 0 3.3 2.5 5.7 5.3 5.7zM204.7 28.3c0 1-.8 1.7-1.7 1.7-1 0-1.7-.8-1.7-1.7 0-.9.8-1.7 1.7-1.7.9-.1 1.7.7 1.7 1.7zm-3.1 0c0 .7.6 1.3 1.3 1.3.7 0 1.3-.6 1.3-1.3 0-.7-.6-1.3-1.3-1.3-.7-.1-1.3.5-1.3 1.3zm1.5-1c.1 0 .7 0 .7.5 0 .2-.1.4-.4.5.3.1.3.2.3.5s0 .4.1.5h-.4c0-.1-.1-.1-.1-.4 0-.3-.1-.4-.4-.4h-.4v.8h-.4v-2h1zm-.5.8h.4c.1 0 .4 0 .4-.3 0-.2-.2-.2-.3-.2h-.4v.5z"/></svg>