<svg width="28" height="19" viewBox="0 0 28 19" xmlns="http://www.w3.org/2000/svg"><title>Slice 1</title><desc>Created with Sketch.</desc><g fill="none"><path d="M25.359 0h-23.12c-1.232 0-2.239 1.017-2.239 2.261v14.478c0 1.244 1.008 2.261 2.239 2.261h23.12c1.232 0 2.239-1.017 2.239-2.261v-14.478c0-1.244-1.008-2.261-2.239-2.261" fill="#F2693F"/><g fill="#fff"><path d="M11.915 6.159c0-.751-.154-1.195-.461-1.536-.222-.222-.563-.375-.819-.375-.393 0-.802.068-1.212.478-.546.58-.614 1.365-.614 2.014 0 .58.188 1.109.546 1.485.307.29.614.427 1.024.427 1.161 0 1.536-1.417 1.536-2.492m1.587 7.271c0-1.007-.768-1.775-2.475-1.655l-1.638.119c-.529.136-1.365.717-1.365 1.638 0 .427.324.938.666 1.177.563.393 1.178.478 2.389.478.631 0 2.509-.444 2.423-1.758m-5.632 1.758c-.614-.375-.87-.819-.87-1.382 0-.956.973-1.69 1.792-2.048v-.068c-.717-.154-1.143-.683-1.143-1.195 0-.819.939-1.399 1.536-1.621v-.034c-.666-.29-1.587-1.075-1.587-2.594 0-1.109.99-2.475 2.918-2.475 1.297 0 1.98.785 2.15.99.461-.324 1.041-.666 1.604-.666.563 0 .836.375.802.717 0 .324-.273.631-.666.631-.29 0-.461-.137-.597-.256-.102-.068-.222-.154-.358-.154-.119 0-.324 0-.546.102.137.341.256.717.256 1.297 0 .666-.188 1.314-.631 1.843-.444.495-1.417.853-1.98.853-.375 0-.614-.017-.87-.085-.341.137-.905.478-.905.956 0 .7.853.649 1.997.58 1.399-.068 2.253.085 2.935.614.734.546.819 1.229.836 1.639 0 .802-.29 1.468-1.143 2.099-.444.324-1.468.802-2.918.802-.819 0-1.792-.085-2.611-.546"/><path d="M16.259 3.699h1.625v.653h.027c.333-.48.666-.906 1.585-.906h.146v1.718c-1.612.066-1.612 1.332-1.612 1.771v4.156h-1.772v-7.392z"/></g></g></svg>