<svg xmlns="http://www.w3.org/2000/svg" viewBox="0 0 40 40" enable-background="new 0 0 40 40"><path fill-rule="evenodd" clip-rule="evenodd" d="M30.6 11.8s-.1 0-.2-.1l.1-1.2c0-5.8-4.7-10.5-10.5-10.5s-10.5 4.7-10.5 10.5l.1 1.2h-.2c-2.3.4-4.1 2.7-4.1 5.1v12.6c0 2.3 1.5 5.3 3.4 6.6 0 0 4.2 3.9 11.3 3.9l11.3-3.9c1.9-1.3 3.4-4.3 3.4-6.6v-12.6c0-2.3-1.8-4.5-4.1-5zm-8.5 15v3.8c0 .6-.5 1-1.1 1h-2c-.6 0-1.1-.5-1.1-1v-3.8c-1.3-.7-2.1-2.1-2.1-3.6 0-2.3 1.9-4.2 4.2-4.2 2.3 0 4.2 1.9 4.2 4.2 0 1.5-.8 2.9-2.1 3.6zm4.2-15.8c-1.8-.3-4-.5-6.3-.5s-4.5.2-6.3.5v-.5c0-3.5 2.8-6.3 6.3-6.3s6.3 2.8 6.3 6.3v.5z"/></svg>