<svg xmlns="http://www.w3.org/2000/svg" viewBox="0 0 40 40" enable-background="new 0 0 40 40"><path fill-rule="evenodd" clip-rule="evenodd" d="M10.9 38.4c-.2-1.9-.4-4.9.1-7.1.5-1.9 2.9-12.2 2.9-12.2s-.8-1.5-.8-3.7c0-3.4 2-6 4.5-6 2.1 0 3.2 1.6 3.2 3.5 0 2.1-1.4 5.3-2.1 8.2-.6 2.4 1.2 4.4 3.7 4.4 4.5 0 7.9-4.6 7.9-11.3 0-5.9-4.3-10-10.5-10-7 .1-11.2 5.4-11.2 10.8 0 2.1.8 4.4 1.9 5.6.2.2.2.5.2.7l-.7 2.8c-.1.4-.4.5-.8.3-3.2-1.4-5.2-5.9-5.2-9.5 0-7.8 5.7-14.9 16.6-14.9 8.6 0 15.4 6.1 15.4 14.2 0 8.5-5.4 15.3-13 15.3-2.5 0-4.9-1.3-5.7-2.8 0 0-1.3 4.7-1.6 5.9-.6 2.1-2.7 5.8-3.1 6.5-.5.6-1.5 2-1.7-.7"/></svg>