<svg xmlns="http://www.w3.org/2000/svg" viewBox="0 0 40 40" enable-background="new 0 0 40 40"><path fill-rule="evenodd" clip-rule="evenodd" d="M20.4 7c-2.7 0-5 .8-6.4 1.6l1.3 4.2c1-.7 2.5-1.1 3.8-1.1 1.9 0 2.8 1 2.8 2.3 0 1.3-1 2.6-2.2 4.1-1.7 2-2.4 4.1-2.3 6v1.2h5.3v-1c0-1.7.5-3.2 1.8-4.8 1.5-1.6 3.2-3.5 3.2-6.4.1-3.3-2.3-6.1-7.3-6.1"/><path d="M20 3.1c9.3 0 16.9 7.6 16.9 16.9s-7.6 16.9-16.9 16.9-16.9-7.6-16.9-16.9 7.6-16.9 16.9-16.9m0-3.1c-11 0-20 9-20 20s9 20 20 20 20-9 20-20-9-20-20-20z"/><circle fill-rule="evenodd" clip-rule="evenodd" cx="20" cy="31" r="3"/></svg>