<svg width="211" height="204" viewBox="0 0 211 204" xmlns="http://www.w3.org/2000/svg"><title>Slice 1</title><desc>Created with Sketch.</desc><g fill="none"><path stroke="#ccc" stroke-width="2" d="M24 96h20v24h-20z"/><path stroke="#ccc" stroke-width="2" d="M56 96h20v24h-20z"/><path stroke="#ccc" stroke-width="2" d="M136 96h20v24h-20z"/><text font-family="Lato-Regular, Lato" font-size="24" fill="#ccc"><tspan x="12.284" y="53">keyword or item #</tspan></text><text font-family="Lato-Light, Lato" font-size="24" font-weight="300" fill="#ccc"><tspan x="27" y="24">START TYPING</tspan></text><text font-family="Lato-Regular, Lato" font-size="14" fill="#ccc"><tspan x="20.317" y="180">Suggested search terms and</tspan><tspan x="26.561" y="199">products will appear here.</tspan></text><path stroke="#ccc" stroke-width="2" d="M168 96h20v24h-20z"/><path fill="#eee" d="M86 87h40v42h-40z"/><path d="M134.722 129.412c10.801-14.212 9.483-34.123-3.326-46.919-6.761-6.767-15.803-10.492-25.449-10.492-9.64 0-18.682 3.726-25.455 10.492-6.767 6.767-10.493 15.802-10.493 25.447s3.726 18.692 10.493 25.453c6.848 6.854 15.89 10.626 25.455 10.626 7.789 0 15.357-2.577 21.491-7.289l15.786 15.785c.888.894 2.24 1.445 3.523 1.445s2.635-.551 3.523-1.439c1.428-1.428 1.729-2.873 1.729-3.836 0-1.288-.522-2.519-1.474-3.465l-15.803-15.808z" stroke="#ccc" stroke-width="2" fill="#fff"/><path d="M105.948 133.515c-6.866 0-13.296-2.716-18.148-7.678-9.971-9.964-9.965-26.376 0-36.561 4.823-4.823 11.271-7.48 18.148-7.48 6.877 0 13.325 2.658 18.154 7.48 9.965 9.976 9.953 26.382-.029 36.584-4.829 4.939-11.259 7.654-18.125 7.654z" stroke="#ccc" stroke-width="2" fill="#fff"/></g></svg>