<svg xmlns="http://www.w3.org/2000/svg" viewBox="-29 31 40 40" enable-background="new -29 31 40 40"><path d="M-19.5 33.3h-.3c-.4 0-.8.2-1.1.5l-7.6 7.6c-.7.7-.7 1.8 0 2.5s1.8.7 2.5 0l4.6-4.6v27.7c0 1 .8 1.8 1.8 1.8s1.8-.8 1.8-1.8v-27.7l4.5 4.5c.7.7 1.8.7 2.5 0s.7-1.8 0-2.5l-7.6-7.6c-.3-.3-.7-.4-1.1-.4zm21 35.4h.3c.4 0 .8-.2 1.1-.5l7.6-7.6c.7-.7.7-1.8 0-2.5s-1.8-.7-2.5 0l-4.6 4.6v-27.6c0-1-.8-1.8-1.8-1.8s-1.8.8-1.8 1.8v27.6l-4.5-4.5c-.7-.7-1.8-.7-2.5 0s-.7 1.8 0 2.5l7.6 7.6c.3.3.7.4 1.1.4z"/></svg>