<svg xmlns="http://www.w3.org/2000/svg" viewBox="0 0 40 40" enable-background="new 0 0 40 40"><path fill-rule="evenodd" clip-rule="evenodd" d="M40 7.8c-1.5.6-3.1 1.1-4.7 1.3 1.7-1 3-2.6 3.6-4.5-1.6.9-3.3 1.6-5.2 2-1.5-1.6-3.6-2.6-6-2.6-4.5 0-8.2 3.6-8.2 8.1 0 .6.1 1.2.2 1.8-6.8-.3-12.9-3.6-16.9-8.4-.7 1.2-1.1 2.6-1.1 4 0 2.8 1.6 5.3 3.9 6.7-1.3 0-3.5-.4-3.5-1v.1c0 3.9 2.6 7.2 6.4 7.9-.7.2-1.5.3-2.3.3l-1.6-.1c1 3.2 4.1 5.5 7.6 5.6-2.8 2.2-6.4 3.5-10.2 3.5-.7 0-1.3 0-2-.1 3.6 2.3 7.9 3.6 12.6 3.6 15.1 0 23.4-12.3 23.4-23v-1c1.5-1.2 2.9-2.6 4-4.2z"/></svg>