<?xml version="1.0" encoding="utf-8"?>
<!-- Generator: Adobe Illustrator 19.1.0, SVG Export Plug-In . SVG Version: 6.00 Build 0)  -->
<svg version="1.1" id="Layer_1" xmlns="http://www.w3.org/2000/svg" xmlns:xlink="http://www.w3.org/1999/xlink" x="0px" y="0px"
	 viewBox="0 0 40 40" enable-background="new 0 0 40 40" xml:space="preserve">
<path d="M28.6,1.4c5.4,0,10,4.9,10,10.7c0,6.2-3.2,12.7-9.4,18.9c-4.2,4.2-8.3,6.9-9.2,7.4c-0.9-0.6-5-3.2-9.2-7.5
	c-6.1-6.2-9.4-12.7-9.4-18.8c0-5.8,4.6-10.7,10-10.7c3.1,0,5.6,1.3,7.4,3.9L20,6.9l1.1-1.6C23,2.7,25.5,1.4,28.6,1.4 M28.6,0
	C25,0,22.1,1.5,20,4.5c-2.1-3-5-4.5-8.6-4.5C5.2,0,0,5.5,0,12.1c0,6.5,3.4,13.4,9.8,19.8c4.8,4.8,9.5,7.7,9.7,7.8L20,40l0.5-0.3
	c0.2-0.1,4.9-3,9.7-7.8c6.4-6.4,9.8-13.3,9.8-19.9C40,5.5,34.8,0,28.6,0L28.6,0z"/>
</svg>
