<svg xmlns="http://www.w3.org/2000/svg" viewBox="0 0 40 40" enable-background="new 0 0 40 40"><path fill-rule="evenodd" clip-rule="evenodd" fill="#231F20" d="M31.8 29.3h-2.2v-1.3c0-.6.5-1 1.1-1h.1c.6 0 1.1.5 1.1 1l-.1 1.3zm-8.4-2.8c-.6 0-1 .4-1 .8v6.2c0 .5.5.8 1 .8.6 0 1-.4 1-.8v-6.2c0-.4-.5-.8-1-.8zm13.6-3.4v11.8c0 2.8-2.5 5.1-5.6 5.1h-22.8c-3.1 0-5.6-2.3-5.6-5.1v-11.8c0-2.8 2.5-5.1 5.6-5.1h22.9c3-.1 5.5 2.2 5.5 5.1zm-26.9 13v-12.4h2.8v-1.8h-7.6v1.8h2.4v12.5h2.4v-.1zm8.5-10.5h-2.4v6.6c0 1 .1 1.4 0 1.6-.2.5-1.1 1.1-1.4.1-.1-.2 0-.7 0-1.6v-6.7h-2.3v8.7c.1.6 0 1.3.6 1.7 1.1.8 3.1-.1 3.6-1.2v1.4h1.9v-10.6zm7.6 7.6v-5.5c0-2.1-1.6-3.4-3.8-1.7v-4.1h-2.4v14.1h1.9l.2-.9c2.5 2.3 4.1.7 4.1-1.9zm7.4-.8h-1.8v1.2c0 .5-.4.9-1 .9h-.3c-.5 0-1-.4-1-.9v-2.6h4.1v-1.5c0-1.1 0-2.2-.1-2.8-.3-2-3.1-2.3-4.6-1.3-.4.3-.8.7-1 1.3-.2.6-.3 1.3-.3 2.3v3.3c0 5.6 6.8 4.8 6 .1zm-9.1-17.9c.1.3.3.5.6.7.3.2.6.3 1 .3.3 0 .6-.1.9-.3.3-.2.5-.5.7-.8v.9h2.6v-11h-2.1v8.6c0 .5-.4.8-.9.8s-.9-.4-.9-.8v-8.6h-2.2v9.3c.1.3.1.7.3.9zm-8-6.2c0-1.1.1-1.9.3-2.5.2-.6.5-1.1 1-1.4.5-.4 1.1-.5 1.8-.5.6 0 1.1.1 1.6.3.4.2.8.5 1 .9.2.4.4.8.5 1.1.1.4.1 1 .1 1.8v2.8c0 1 0 1.8-.1 2.2-.1.5-.3.9-.5 1.3-.3.4-.6.7-1 .9-.4.2-.9.3-1.4.3-.6 0-1.1-.1-1.5-.3-.4-.2-.7-.4-1-.8-.2-.3-.4-.8-.5-1.2-.1-.5-.1-1.2-.1-2.2l-.2-2.7zm2 4.4c0 .6.5 1.1 1 1.1.6 0 1-.5 1-1.1v-5.8c0-.6-.5-1.1-1-1.1-.6 0-1 .5-1 1.1v5.8zm-7.3 3h2.5v-8.4l3-7.3h-2.7l-1.6 5.4-1.6-5.4h-2.7l3.1 7.2v8.5z"/></svg>